# xmcd
#
# Track frame offsets:
#	150
#	16905
#	36329
#	52099
#	69046
#	86560
#	105043
#	119382
#	136079
#	152248
#	169003
#	188427
#	204197
#	221144
#	238658
#	257141
#	271480
#	288177
#
# Disc length: 4057 seconds
#
# Revision: 1
# Processed by: cddbd v1.5.1PL2 Copyright (c) Steve Scherf et al.
# Submitted via: audiograbber 1.83.01
#
DISCID=f10fd712
DTITLE=Pop Hits Monthly Nashville Country (First, Surname - PHMN0411
DYEAR=1900
DGENRE=Karaoke
TTITLE0=Lonestar - Mr. Mom
TTITLE1=Emerson Drive - November
TTITLE2=Blake Shelton - Some Beach
TTITLE3=Toby Keith - Stays In Mexico
TTITLE4=Trent Willmon - Dixie Rose Deluxe's Honky Tonk
TTITLE5=Pat Green - Don't Break My Heart Again
TTITLE6=Catherine Britt - Upside Of Being Down, The
TTITLE7=Reba McEntire - He Gets That From Me
TTITLE8=Darryl Worley - Awful, Beautiful Life
TTITLE9=Lonestar w/vocal - Mr. Mom
TTITLE10=Emerson Drive w/vocal - November
TTITLE11=Darryl Shelton w/vocal - Some Beach
TTITLE12=Toby  Keith w/vocal - Stays In Mexico
TTITLE13=Trent Willmon  w/vocal - Dixie Rose Deluxe's Honky Tonk
TTITLE14=Pat Green  w/vocal - Don't Break My Heart Again
TTITLE15=Catherine  Britt w/vocal - Upside Of Being Down, The
TTITLE16=Reba McEntire  w/vocal - He Gets That From Me
TTITLE17=Darryl Worley  w/vocal - Awful, Beautiful Life
EXTD=
EXTT0=
EXTT1=
EXTT2=
EXTT3=
EXTT4=
EXTT5=
EXTT6=
EXTT7=
EXTT8=
EXTT9=
EXTT10=
EXTT11=
EXTT12=
EXTT13=
EXTT14=
EXTT15=
EXTT16=
EXTT17=
PLAYORDER=
